<svg width="14" height="11" viewBox="0 0 14 11" fill="none" xmlns="http://www.w3.org/2000/svg">
<path d="M7.00016 10.5001C11.1188 10.5001 13.7762 5.87654 13.8873 5.68054C14.037 5.41454 14.0378 5.08904 13.8882 4.82304C13.778 4.62616 11.1398 0 7.00016 0C2.83951 0 0.219738 4.62791 0.110362 4.82479C-0.0375137 5.08991 -0.0366387 5.41279 0.112112 5.67792C0.222363 5.87392 2.86051 10.5001 7.00016 10.5001ZM7.00016 1.75001C9.48431 1.75001 11.4067 4.23066 12.091 5.25004C11.4049 6.2703 9.48256 8.75007 7.00016 8.75007C4.51427 8.75007 2.59188 6.2668 1.9085 5.24916C2.58838 4.23066 4.5029 1.75001 7.00016 1.75001Z" fill="#56F2C3"/>
<path d="M7.00026 7.00003C7.96676 7.00003 8.75027 6.21652 8.75027 5.25001C8.75027 4.28351 7.96676 3.5 7.00026 3.5C6.03375 3.5 5.25024 4.28351 5.25024 5.25001C5.25024 6.21652 6.03375 7.00003 7.00026 7.00003Z" fill="#56F2C3"/>
</svg>
