<svg width="14" height="14" viewBox="0 0 14 14" fill="none" xmlns="http://www.w3.org/2000/svg">
<path d="M12.752 4.96033L11.5061 6.20628C11.7493 6.50989 11.9488 6.78726 12.0914 6.99987C11.4265 7.98858 9.59779 10.3422 7.22576 10.4866L5.6377 12.0747C6.07168 12.1832 6.52491 12.2497 7.00002 12.2497C11.1185 12.2497 13.7758 7.62635 13.8869 7.43036C14.0365 7.16437 14.0374 6.83888 13.8877 6.57289C13.8466 6.49852 13.4503 5.80204 12.752 4.96033Z" fill="#A0AEC5"/>
<path d="M0.256693 13.7433C0.427312 13.9139 0.651303 13.9997 0.875294 13.9997C1.09929 13.9997 1.32328 13.9139 1.49389 13.7433L13.7434 1.49379C14.0855 1.15167 14.0855 0.598695 13.7434 0.256584C13.4013 -0.0855279 12.8483 -0.0855279 12.5062 0.256584L10.1044 2.65837C9.20059 2.12726 8.16463 1.75015 7.00005 1.75015C2.83959 1.75015 0.219945 6.37784 0.110574 6.57471C-0.0372953 6.83983 -0.0364204 7.16269 0.112324 7.4278C0.173571 7.53717 1.02579 9.00449 2.46861 10.2942L0.255818 12.507C-0.0854184 12.8482 -0.0854184 13.4012 0.256693 13.7433ZM1.90863 6.99907C2.58848 5.98061 4.5029 3.50008 7.00005 3.50008C7.64928 3.50008 8.25738 3.67595 8.81823 3.94456L7.44804 5.31476C7.30454 5.27539 7.1558 5.25001 7.00005 5.25001C6.03322 5.25001 5.25012 6.03311 5.25012 6.99994C5.25012 7.15569 5.2755 7.30443 5.31487 7.44793L3.71018 9.05261C2.87459 8.32114 2.23937 7.49168 1.90863 6.99907Z" fill="#A0AEC5"/>
</svg>
